<svg width="57" height="26" viewBox="0 0 57 26" fill="none" xmlns="http://www.w3.org/2000/svg">
<rect x="0.5" y="0.5" width="56" height="25" rx="4.5" fill="#FBFBFB"/>
<rect x="0.5" y="0.5" width="56" height="25" rx="4.5" stroke="#196EF5"/>
<g clip-path="url(#clip0_596_253)">
<path fill-rule="evenodd" clip-rule="evenodd" d="M29.0305 4.75532L35.7596 8.51574C35.9572 8.61436 36.1233 8.76609 36.2394 8.9539C36.3554 9.14171 36.4168 9.35816 36.4167 9.57895V10.7189C36.4167 11.2652 35.9734 11.7085 35.4271 11.7085H34.8334V18.0419H35.625C35.835 18.0419 36.0364 18.1253 36.1848 18.2737C36.3333 18.4222 36.4167 18.6236 36.4167 18.8335C36.4167 19.0435 36.3333 19.2449 36.1848 19.3933C36.0364 19.5418 35.835 19.6252 35.625 19.6252H21.375C21.1651 19.6252 20.9637 19.5418 20.8152 19.3933C20.6668 19.2449 20.5834 19.0435 20.5834 18.8335C20.5834 18.6236 20.6668 18.4222 20.8152 18.2737C20.9637 18.1253 21.1651 18.0419 21.375 18.0419H22.1667V11.7085H21.573C21.0267 11.7085 20.5834 11.2652 20.5834 10.7189V9.57895C20.5834 9.1657 20.7971 8.7857 21.1423 8.57036L27.9688 4.75532C28.1338 4.67283 28.3156 4.62988 28.5 4.62988C28.6844 4.62988 28.8655 4.67283 29.0305 4.75532ZM32.4584 11.7085H24.5417V18.0419H26.125V13.2919H27.7084V18.0419H29.2917V13.2919H30.875V18.0419H32.4584V11.7085ZM28.5 7.7502C28.2901 7.7502 28.0887 7.8336 27.9402 7.98207C27.7918 8.13054 27.7084 8.3319 27.7084 8.54186C27.7084 8.75183 27.7918 8.95319 27.9402 9.10166C28.0887 9.25012 28.2901 9.33353 28.5 9.33353C28.71 9.33353 28.9114 9.25012 29.0598 9.10166C29.2083 8.95319 29.2917 8.75183 29.2917 8.54186C29.2917 8.3319 29.2083 8.13054 29.0598 7.98207C28.9114 7.8336 28.71 7.7502 28.5 7.7502Z" fill="black"/>
</g>
<defs>
<clipPath id="clip0_596_253">
<rect width="19" height="19" fill="white" transform="translate(19 3)"/>
</clipPath>
</defs>
</svg>
