<svg width="57" height="26" viewBox="0 0 57 26" fill="none" xmlns="http://www.w3.org/2000/svg">
<rect x="0.5" y="0.5" width="56" height="25" rx="4.5" fill="#FBFBFB"/>
<rect x="0.5" y="0.5" width="56" height="25" rx="4.5" stroke="#196EF5"/>
<g clip-path="url(#clip0_596_209)">
<path fill-rule="evenodd" clip-rule="evenodd" d="M24.7748 20.8599H33.4917V5.14062H24.7748V20.8599Z" fill="#FF5F00"/>
<path fill-rule="evenodd" clip-rule="evenodd" d="M25.3197 13C25.3197 9.80702 26.8135 6.96491 29.1333 5.14035C27.4462 3.80702 25.3021 3 22.9647 3C17.4639 3 13 7.47368 13 13C13 18.5263 17.4639 23 22.9647 23C25.2845 23 27.4286 22.193 29.1333 20.8596C26.8135 19.0351 25.3197 16.193 25.3197 13Z" fill="#EB001B"/>
<path fill-rule="evenodd" clip-rule="evenodd" d="M44.9508 19.193V18.807H44.8453L44.7223 19.0702L44.5993 18.807H44.4938V19.193H44.5641V18.8947L44.6696 19.1404H44.7399L44.8453 18.8947V19.193H44.9508ZM44.3181 19.193V18.8772H44.4411V18.807H44.1072V18.8772H44.2302V19.193H44.3181ZM45.2671 13C45.2671 18.5263 40.8032 23 35.3024 23C32.9826 23 30.8385 22.193 29.1338 20.8596C31.4536 19.0351 32.9474 16.193 32.9474 13C32.9474 9.80702 31.4536 6.96491 29.1338 5.14035C30.8385 3.80702 32.965 3 35.3024 3C40.8032 3 45.2671 7.47368 45.2671 13Z" fill="#F79E1B"/>
</g>
<defs>
<clipPath id="clip0_596_209">
<rect width="32.2667" height="20" fill="white" transform="translate(13 3)"/>
</clipPath>
</defs>
</svg>
