<svg width="57" height="26" viewBox="0 0 57 26" fill="none" xmlns="http://www.w3.org/2000/svg">
<rect x="0.5" y="0.5" width="56" height="25" rx="4.5" fill="#FBFBFB"/>
<rect x="0.5" y="0.5" width="56" height="25" rx="4.5" stroke="#196EF5"/>
<path d="M45.2652 9.80346L44.2802 15.9766C44.2765 15.9993 44.2778 16.0225 44.2841 16.0446C44.2903 16.0667 44.3014 16.0871 44.3164 16.1046C44.3314 16.122 44.35 16.1359 44.371 16.1453C44.392 16.1548 44.4148 16.1596 44.4378 16.1593H45.6034C45.6446 16.1596 45.6845 16.1453 45.7159 16.1188C45.7473 16.0924 45.7682 16.0556 45.7748 16.015L46.7598 9.84191C46.7634 9.81924 46.7621 9.79604 46.7559 9.77394C46.7496 9.75183 46.7386 9.73136 46.7236 9.71396C46.7086 9.69655 46.6899 9.68263 46.6689 9.67317C46.648 9.66372 46.6252 9.65895 46.6021 9.65921H45.4365C45.3953 9.6584 45.3551 9.67259 45.3236 9.69913C45.2921 9.72567 45.2713 9.76276 45.2652 9.80346ZM44.0205 11.6049H42.9145C42.8734 11.6045 42.8336 11.6188 42.8022 11.6453C42.7708 11.6717 42.7499 11.7085 42.7434 11.7489L42.7068 11.9762C42.7068 11.9762 41.8478 11.047 40.3269 11.675C39.4544 12.0345 39.0356 12.7773 38.8574 13.3214C38.8574 13.3214 38.2917 14.9752 39.571 15.8855C39.571 15.8855 40.7573 16.761 42.0931 15.8316L42.07 15.9766C42.0646 16.0107 42.0706 16.0455 42.087 16.0759C42.1034 16.1062 42.1294 16.1303 42.1608 16.1446C42.1817 16.1544 42.2045 16.1593 42.2276 16.1593H43.3343C43.3756 16.1601 43.4157 16.1459 43.4472 16.1194C43.4788 16.0928 43.4995 16.0557 43.5057 16.015L44.1788 11.7876C44.1826 11.765 44.1813 11.7418 44.1749 11.7197C44.1686 11.6976 44.1574 11.6773 44.1422 11.66C44.1272 11.6425 44.1086 11.6284 44.0875 11.6188C44.0665 11.6093 44.0436 11.6047 44.0205 11.6049ZM42.3931 13.9413C42.3499 14.2366 42.2002 14.5061 41.972 14.6992C41.7429 14.893 41.4512 14.9976 41.1508 14.9938C41.033 14.9952 40.9157 14.9782 40.8032 14.9434C40.3257 14.7915 40.0532 14.3375 40.1315 13.8453C40.175 13.55 40.3249 13.2807 40.553 13.0878C40.782 12.8939 41.0734 12.7889 41.3737 12.7922C41.4916 12.791 41.6089 12.8082 41.7214 12.8431C42.2018 12.994 42.4731 13.4488 42.3943 13.9415H42.3931V13.9413ZM36.4873 14.0581C37.0871 14.0581 37.6672 13.8455 38.1228 13.459C38.5775 13.0739 38.8786 12.5388 38.9713 11.951C39.165 10.7282 38.2004 9.66093 36.833 9.66093H34.6301C34.589 9.66053 34.5491 9.67488 34.5177 9.70135C34.4863 9.72783 34.4655 9.76467 34.459 9.80517L33.4738 15.9783C33.4685 16.0124 33.4745 16.0472 33.4909 16.0776C33.5073 16.1079 33.5332 16.1321 33.5647 16.1463C33.5858 16.1561 33.6084 16.161 33.6314 16.161H34.7978C34.8389 16.1614 34.8788 16.1471 34.9102 16.1206C34.9416 16.0941 34.9624 16.0573 34.9689 16.0168L35.2581 14.204C35.2642 14.1633 35.2849 14.1261 35.3165 14.0995C35.348 14.073 35.3882 14.0587 35.4295 14.0595L36.4873 14.0581ZM37.4629 11.8954C37.391 12.3475 37.038 12.6803 36.3626 12.6803H35.4992L35.7614 11.0363H36.6093C37.3075 11.0375 37.5349 11.4453 37.4629 11.8966V11.8954Z" fill="#0070E0"/>
<path d="M32.1448 11.7087L30.8108 13.9385L30.1337 11.7251C30.1231 11.6898 30.1013 11.6589 30.0715 11.637C30.0418 11.6152 30.0057 11.6035 29.9687 11.6039H28.7648C28.7337 11.6035 28.7034 11.6143 28.6796 11.6344C28.6559 11.6545 28.6402 11.6824 28.6354 11.7131C28.6325 11.7335 28.6346 11.7543 28.6416 11.7736L29.8548 15.502L28.7574 17.2589C28.7481 17.2733 28.7419 17.2895 28.7391 17.3065C28.7362 17.3235 28.7369 17.3408 28.7411 17.3575C28.7452 17.3742 28.7527 17.3899 28.7631 17.4036C28.7735 17.4172 28.7866 17.4287 28.8016 17.4371C28.8217 17.4487 28.8445 17.4546 28.8677 17.4543H30.1644C30.2014 17.4544 30.2378 17.445 30.2701 17.427C30.3024 17.409 30.3295 17.383 30.3488 17.3514L33.7376 11.8003C33.7499 11.781 33.7567 11.7587 33.7571 11.7358C33.7576 11.7129 33.7518 11.6904 33.7403 11.6705C33.7289 11.6506 33.7123 11.6342 33.6923 11.6229C33.6723 11.6115 33.6497 11.6057 33.6267 11.6061H32.3304C32.2933 11.6058 32.2566 11.6151 32.2241 11.633C32.1916 11.651 32.1643 11.6771 32.1448 11.7087ZM28.0823 11.6039H26.9754C26.9342 11.6035 26.8942 11.6179 26.8628 11.6444C26.8313 11.6709 26.8105 11.7078 26.804 11.7484L26.7682 11.9754C26.7682 11.9754 25.9084 11.0463 24.3876 11.6742C23.5153 12.0337 23.0962 12.7765 22.9187 13.3207C22.9187 13.3207 22.3526 14.9745 23.6317 15.8847C23.6317 15.8847 24.8182 16.7602 26.1539 15.8309L26.1309 15.9758C26.1254 16.0099 26.1314 16.0448 26.1478 16.0752C26.1642 16.1055 26.1902 16.1297 26.2217 16.1438C26.2426 16.1536 26.2654 16.1585 26.2885 16.1585H27.3952C27.4363 16.1588 27.4761 16.1444 27.5075 16.118C27.5389 16.0915 27.5597 16.0547 27.5663 16.0143L28.2397 11.7869C28.2452 11.7528 28.2393 11.7178 28.2228 11.6874C28.2064 11.657 28.1804 11.6328 28.1489 11.6186C28.1279 11.609 28.1054 11.604 28.0823 11.6039ZM26.4547 13.9407C26.4111 14.2357 26.2613 14.5048 26.0334 14.6977C25.8044 14.8915 25.513 14.9964 25.2127 14.9931C25.095 14.9944 24.9779 14.9773 24.8655 14.9426C24.3883 14.7908 24.116 14.3367 24.1944 13.8442C24.238 13.5484 24.3884 13.2786 24.6173 13.0856C24.8472 12.8917 25.1395 12.7872 25.4405 12.7914C25.5583 12.7902 25.6759 12.8073 25.7884 12.8424C26.2639 12.9932 26.5347 13.4478 26.4561 13.9407H26.4547ZM20.5492 14.0573C21.1479 14.057 21.7271 13.8444 22.1832 13.4576C22.6375 13.0724 22.9382 12.5375 23.0307 11.95C23.2246 10.7274 22.2598 9.66016 20.8929 9.66016H18.6898C18.6487 9.65975 18.6088 9.67406 18.5773 9.70048C18.5459 9.7269 18.525 9.76368 18.5184 9.80416L17.5364 15.9756C17.5309 16.0097 17.5369 16.0447 17.5533 16.0751C17.5697 16.1055 17.5957 16.1296 17.6273 16.1438C17.6481 16.1534 17.6709 16.1585 17.694 16.1585H18.8597C18.9008 16.1589 18.9408 16.1446 18.9722 16.118C19.0037 16.0915 19.0245 16.0546 19.031 16.014L19.3197 14.2013C19.3259 14.1606 19.3466 14.1235 19.3782 14.097C19.4097 14.0704 19.4498 14.0562 19.4911 14.0571L20.5492 14.0573ZM21.5248 11.8944C21.4529 12.3465 21.1001 12.6793 20.4247 12.6793H19.5613L19.823 11.0353H20.6709C21.3694 11.0365 21.5965 11.4445 21.5248 11.8956V11.8944Z" fill="#003087"/>
<path d="M13.0116 9.97718C13.0379 8.61407 11.9108 7.56836 10.361 7.56836H7.15526C7.08055 7.56832 7.00829 7.5949 6.95149 7.6433C6.89469 7.6917 6.85708 7.75875 6.84544 7.83236L5.56098 15.8388C5.55524 15.8751 5.55744 15.9122 5.56744 15.9475C5.57745 15.9829 5.59501 16.0157 5.61892 16.0436C5.64284 16.0715 5.67254 16.0939 5.70598 16.1093C5.73942 16.1247 5.7758 16.1327 5.81262 16.1327H7.7118L7.41499 17.9866C7.40925 18.0228 7.41145 18.0599 7.42145 18.0953C7.43146 18.1306 7.44902 18.1634 7.47293 18.1913C7.49685 18.2193 7.52655 18.2417 7.55999 18.2571C7.59343 18.2725 7.62981 18.2804 7.66663 18.2804H9.21377C9.2884 18.2804 9.35493 18.2537 9.41188 18.2055C9.46835 18.157 9.47768 18.0902 9.48946 18.0164L9.94364 15.351C9.95517 15.2775 9.99273 15.182 10.0494 15.1335C10.1062 15.085 10.1557 15.0586 10.2306 15.0586H11.1773C12.6952 15.0586 13.9828 13.9822 14.2183 12.4854C14.385 11.4231 13.9283 10.4564 13.0116 9.97718Z" fill="#001C64"/>
<path d="M8.12636 13.1806L7.65329 16.1727L7.35623 18.0496C7.35052 18.0859 7.35276 18.123 7.3628 18.1583C7.37283 18.1937 7.39042 18.2264 7.41436 18.2543C7.4383 18.2822 7.46802 18.3046 7.50146 18.32C7.53491 18.3353 7.5713 18.3433 7.60812 18.3433H9.2456C9.32023 18.3432 9.3924 18.3166 9.44911 18.2682C9.50582 18.2198 9.54334 18.1528 9.55492 18.0793L9.98651 15.3513C9.99815 15.2778 10.0357 15.2108 10.0925 15.1624C10.1492 15.114 10.2214 15.0874 10.2961 15.0873H11.2599C12.7778 15.0873 14.0655 13.9828 14.3012 12.486C14.4681 11.4237 13.9319 10.4568 13.0152 9.97754C13.0128 10.0907 13.003 10.2036 12.9855 10.3155C12.7501 11.8118 11.462 12.9166 9.94453 12.9166H8.43594C8.36125 12.9166 8.28905 12.9433 8.2323 12.9917C8.17556 13.0402 8.13799 13.107 8.12636 13.1806Z" fill="#0070E0"/>
<path d="M7.65182 16.1728H5.74674C5.70993 16.1728 5.67355 16.1649 5.64012 16.1495C5.6067 16.1341 5.57701 16.1117 5.55311 16.0837C5.52922 16.0558 5.51168 16.023 5.5017 15.9877C5.49173 15.9523 5.48957 15.9152 5.49535 15.879L6.7798 7.75375C6.79144 7.68018 6.82901 7.61317 6.88576 7.56477C6.94251 7.51637 7.01472 7.48977 7.08938 7.48975H10.3634C11.9132 7.48975 13.0403 8.61481 13.014 9.97766C12.6283 9.77587 12.1751 9.66052 11.6787 9.66052H8.94928C8.87458 9.66049 8.80231 9.68706 8.74551 9.73546C8.68871 9.78387 8.6511 9.85091 8.63946 9.92452L8.12538 13.1807L7.65157 16.1728H7.65182Z" fill="#003087"/>
</svg>
