<svg width="57" height="26" viewBox="0 0 57 26" fill="none" xmlns="http://www.w3.org/2000/svg">
<rect x="0.5" y="0.5" width="56" height="25" rx="4.5" fill="#FBFBFB"/>
<rect x="0.5" y="0.5" width="56" height="25" rx="4.5" stroke="#196EF5"/>
<g clip-path="url(#clip0_596_206)">
<path d="M33.228 7.41406C30.9972 7.41406 28.9942 8.57487 28.9942 10.705C28.9942 13.1583 32.5324 13.3258 32.5324 14.5465C32.5324 15.0611 31.9327 15.5278 30.9252 15.5278C29.4859 15.5278 28.4065 14.8816 28.4065 14.8816L27.9507 17.0356C27.9507 17.0356 29.1861 17.5861 30.8413 17.5861C33.288 17.5861 35.207 16.3774 35.207 14.1994C35.207 11.6145 31.6568 11.447 31.6568 10.3101C31.6568 9.90323 32.1486 9.46044 33.1561 9.46044C34.2955 9.46044 35.231 9.92716 35.231 9.92716L35.6868 7.84488C35.6748 7.84488 34.6553 7.41406 33.228 7.41406ZM12.7904 7.56964L12.7305 7.88078C12.7305 7.88078 13.666 8.04832 14.5176 8.39537C15.609 8.79028 15.681 9.01766 15.8729 9.72372L17.8759 17.4186H20.5625L24.6764 7.56964H22.0018L19.3511 14.2712L18.2717 8.58684C18.1757 7.94062 17.672 7.56964 17.0483 7.56964H12.7904ZM25.7558 7.56964L23.6569 17.4186H26.2116L28.2986 7.56964H25.7558ZM39.9806 7.56964C39.3689 7.56964 39.0451 7.89275 38.8052 8.46717L35.0631 17.4186H37.7378L38.2535 15.9227H41.5158L41.8277 17.4186H44.1905L42.1395 7.56964H39.9806ZM40.3284 10.2383L41.12 13.9362H38.9971L40.3284 10.2383Z" fill="#1434CB"/>
</g>
<defs>
<clipPath id="clip0_596_206">
<rect width="31.46" height="10.1721" fill="white" transform="translate(12.7305 7.41406)"/>
</clipPath>
</defs>
</svg>
