<svg width="430" height="932" viewBox="0 0 430 932" fill="none" xmlns="http://www.w3.org/2000/svg">
<rect width="430" height="932" fill="white"/>
<path d="M102.284 454.952L99.512 454.484V452.252H111.032V454.484L107.576 454.952V476.444L115.28 476.12L117.548 469.388L120.464 469.784L119.348 479H99.44V476.84L102.284 476.48V454.952ZM122.181 473.384C122.181 471.2 123.273 469.556 125.457 468.452C127.665 467.348 130.509 466.784 133.989 466.76V465.932C133.989 464.948 133.881 464.18 133.665 463.628C133.473 463.076 133.101 462.668 132.549 462.404C132.021 462.116 131.241 461.972 130.209 461.972C129.033 461.972 127.977 462.128 127.041 462.44C126.105 462.728 125.133 463.112 124.125 463.592L123.009 461.288C123.369 460.976 123.969 460.604 124.809 460.172C125.673 459.74 126.693 459.368 127.869 459.056C129.045 458.72 130.257 458.552 131.505 458.552C133.353 458.552 134.793 458.792 135.825 459.272C136.881 459.752 137.637 460.52 138.093 461.576C138.549 462.632 138.777 464.048 138.777 465.824V476.84H140.721V478.856C140.241 478.976 139.557 479.096 138.669 479.216C137.781 479.336 137.001 479.396 136.329 479.396C135.513 479.396 134.961 479.276 134.673 479.036C134.409 478.796 134.277 478.304 134.277 477.56V476.588C133.629 477.308 132.789 477.956 131.757 478.532C130.725 479.108 129.561 479.396 128.265 479.396C127.161 479.396 126.141 479.168 125.205 478.712C124.293 478.232 123.561 477.548 123.009 476.66C122.457 475.748 122.181 474.656 122.181 473.384ZM130.569 476.408C131.073 476.408 131.649 476.264 132.297 475.976C132.945 475.664 133.509 475.292 133.989 474.86V468.956C131.829 468.956 130.209 469.328 129.129 470.072C128.073 470.792 127.545 471.728 127.545 472.88C127.545 474.032 127.809 474.908 128.337 475.508C128.889 476.108 129.633 476.408 130.569 476.408ZM159.204 479.36C158.412 479.36 157.836 479.192 157.476 478.856C157.116 478.52 156.936 478.016 156.936 477.344V476.372C156.288 477.164 155.376 477.872 154.2 478.496C153.024 479.096 151.848 479.396 150.672 479.396C148.368 479.396 146.724 478.808 145.74 477.632C144.756 476.432 144.264 474.464 144.264 471.728V461.576L142.464 461.072V459.02L148.584 458.552H148.62L149.34 459.056V471.728C149.34 473.48 149.556 474.704 149.988 475.4C150.42 476.096 151.224 476.444 152.4 476.444C153.816 476.444 155.136 475.892 156.36 474.788V461.576L153.948 461.036V459.02L160.464 458.552H160.536L161.4 459.056V476.768H163.416L163.38 478.82C163.284 478.844 162.84 478.94 162.048 479.108C161.256 479.276 160.308 479.36 159.204 479.36ZM167.976 462.404L165.672 461.756V459.272L171.648 458.516H171.756L172.656 459.236V460.64L172.62 461.504C173.46 460.712 174.552 460.028 175.896 459.452C177.24 458.876 178.596 458.588 179.964 458.588C181.428 458.588 182.568 458.864 183.384 459.416C184.224 459.944 184.824 460.784 185.184 461.936C185.544 463.088 185.724 464.648 185.724 466.616V476.552L187.92 476.84V479H178.632V476.84L180.576 476.552V466.616C180.576 465.368 180.492 464.396 180.324 463.7C180.156 462.98 179.844 462.464 179.388 462.152C178.956 461.816 178.332 461.648 177.516 461.648C176.148 461.648 174.684 462.236 173.124 463.412V476.516L175.284 476.84V479H165.888V476.84L167.976 476.516V462.404ZM197.988 479.396C196.5 479.396 195.168 479.048 193.992 478.352C192.816 477.632 191.88 476.528 191.184 475.04C190.488 473.552 190.14 471.692 190.14 469.46C190.14 467.444 190.548 465.608 191.364 463.952C192.204 462.272 193.428 460.94 195.036 459.956C196.644 458.972 198.576 458.48 200.832 458.48C201.744 458.48 202.608 458.576 203.424 458.768V452.684L199.896 452.18V450.2L207.312 449.48H207.42L208.428 450.236V476.804H210.372V478.856C208.644 479.216 207.216 479.396 206.088 479.396C205.32 479.396 204.768 479.264 204.432 479C204.12 478.76 203.964 478.268 203.964 477.524V476.516C203.34 477.356 202.488 478.052 201.408 478.604C200.328 479.132 199.188 479.396 197.988 479.396ZM199.86 476.408C200.652 476.408 201.348 476.252 201.948 475.94C202.572 475.604 203.064 475.208 203.424 474.752V461.648C203.256 461.408 202.896 461.204 202.344 461.036C201.816 460.868 201.24 460.784 200.616 460.784C199.08 460.784 197.844 461.456 196.908 462.8C195.996 464.12 195.54 466.244 195.54 469.172C195.54 471.62 195.936 473.444 196.728 474.644C197.52 475.82 198.564 476.408 199.86 476.408ZM212.999 476.876L215.375 476.588V462.404L213.071 461.756V459.272L218.651 458.516H218.759L219.659 459.236V460.028L219.551 462.944H219.659C219.827 462.464 220.223 461.876 220.847 461.18C221.471 460.46 222.251 459.836 223.187 459.308C224.147 458.756 225.179 458.48 226.283 458.48C226.811 458.48 227.267 458.552 227.651 458.696V464.096C226.931 463.592 226.055 463.34 225.023 463.34C223.271 463.34 221.747 463.808 220.451 464.744V476.552L224.627 476.876V479H212.999V476.876ZM233.148 487.964C232.716 487.964 232.248 487.928 231.744 487.856C231.264 487.784 230.916 487.7 230.7 487.604V483.752C230.868 483.848 231.204 483.944 231.708 484.04C232.212 484.136 232.668 484.184 233.076 484.184C234.276 484.184 235.26 483.788 236.028 482.996C236.82 482.204 237.552 480.872 238.224 479H236.28L229.512 461.54L227.892 461.072V458.984H237.792V461.072L235.164 461.504L238.368 471.476L239.664 475.724L240.78 471.476L243.732 461.504L241.464 461.072V458.984H249.276V461.072L247.512 461.504C246.192 465.536 244.884 469.424 243.588 473.168C242.292 476.912 241.536 479.012 241.32 479.468C240.552 481.484 239.82 483.092 239.124 484.292C238.428 485.492 237.6 486.404 236.64 487.028C235.68 487.652 234.516 487.964 233.148 487.964Z" fill="#123498"/>
<path d="M253.209 454.952L250.329 454.484V452.252H269.517L269.985 458.3H267.465L266.277 454.736L258.501 454.412V464.096L263.505 463.988L264.081 461.036H266.385V469.748H264.081L263.505 466.652L258.501 466.544V476.696L267.213 476.264L269.301 471.656L272.001 472.412L271.065 479H250.365V476.84L253.209 476.48V454.952ZM273.775 473.384C273.775 471.2 274.867 469.556 277.051 468.452C279.259 467.348 282.103 466.784 285.583 466.76V465.932C285.583 464.948 285.475 464.18 285.259 463.628C285.067 463.076 284.695 462.668 284.143 462.404C283.615 462.116 282.835 461.972 281.803 461.972C280.627 461.972 279.571 462.128 278.635 462.44C277.699 462.728 276.727 463.112 275.719 463.592L274.603 461.288C274.963 460.976 275.563 460.604 276.403 460.172C277.267 459.74 278.287 459.368 279.463 459.056C280.639 458.72 281.851 458.552 283.099 458.552C284.947 458.552 286.387 458.792 287.419 459.272C288.475 459.752 289.231 460.52 289.687 461.576C290.143 462.632 290.371 464.048 290.371 465.824V476.84H292.315V478.856C291.835 478.976 291.151 479.096 290.263 479.216C289.375 479.336 288.595 479.396 287.923 479.396C287.107 479.396 286.555 479.276 286.267 479.036C286.003 478.796 285.871 478.304 285.871 477.56V476.588C285.223 477.308 284.383 477.956 283.351 478.532C282.319 479.108 281.155 479.396 279.859 479.396C278.755 479.396 277.735 479.168 276.799 478.712C275.887 478.232 275.155 477.548 274.603 476.66C274.051 475.748 273.775 474.656 273.775 473.384ZM282.163 476.408C282.667 476.408 283.243 476.264 283.891 475.976C284.539 475.664 285.103 475.292 285.583 474.86V468.956C283.423 468.956 281.803 469.328 280.723 470.072C279.667 470.792 279.139 471.728 279.139 472.88C279.139 474.032 279.403 474.908 279.931 475.508C280.483 476.108 281.227 476.408 282.163 476.408ZM298.557 476.048C298.749 476.336 299.181 476.612 299.853 476.876C300.549 477.116 301.245 477.236 301.941 477.236C303.069 477.236 303.909 477.008 304.461 476.552C305.037 476.072 305.325 475.448 305.325 474.68C305.325 473.888 304.977 473.252 304.281 472.772C303.585 472.268 302.409 471.656 300.753 470.936L299.745 470.504C298.089 469.808 296.853 468.968 296.037 467.984C295.221 467 294.813 465.728 294.813 464.168C294.813 463.088 295.137 462.128 295.785 461.288C296.433 460.424 297.345 459.752 298.521 459.272C299.697 458.792 301.053 458.552 302.589 458.552C303.717 458.552 304.677 458.624 305.469 458.768C306.285 458.912 307.137 459.104 308.025 459.344C308.505 459.512 308.865 459.608 309.105 459.632V464.348H306.261L305.433 461.612C305.289 461.372 304.965 461.156 304.461 460.964C303.957 460.772 303.381 460.676 302.733 460.676C301.749 460.676 300.957 460.892 300.357 461.324C299.781 461.732 299.493 462.308 299.493 463.052C299.493 463.724 299.697 464.288 300.105 464.744C300.513 465.176 300.957 465.512 301.437 465.752C301.917 465.992 302.805 466.388 304.101 466.94C305.397 467.492 306.465 468.02 307.305 468.524C308.169 469.028 308.877 469.688 309.429 470.504C310.005 471.296 310.293 472.268 310.293 473.42C310.293 475.196 309.597 476.636 308.205 477.74C306.813 478.844 304.809 479.396 302.193 479.396C300.969 479.396 299.865 479.288 298.881 479.072C297.921 478.856 296.805 478.568 295.533 478.208L294.741 477.956V473.204H297.729L298.557 476.048ZM322.301 479.396C319.133 479.396 316.769 478.472 315.209 476.624C313.673 474.752 312.905 472.208 312.905 468.992C312.905 466.832 313.301 464.96 314.093 463.376C314.909 461.792 316.049 460.58 317.513 459.74C318.977 458.9 320.669 458.48 322.589 458.48C324.989 458.48 326.837 459.116 328.133 460.388C329.429 461.636 330.101 463.424 330.149 465.752C330.149 467.336 330.053 468.512 329.861 469.28H318.161C318.257 471.464 318.773 473.168 319.709 474.392C320.645 475.592 321.977 476.192 323.705 476.192C324.641 476.192 325.601 476.036 326.585 475.724C327.593 475.412 328.385 475.04 328.961 474.608L329.861 476.588C329.213 477.284 328.157 477.932 326.693 478.532C325.253 479.108 323.789 479.396 322.301 479.396ZM325.109 467.12C325.157 466.448 325.181 465.932 325.181 465.572C325.181 462.38 324.113 460.784 321.977 460.784C320.801 460.784 319.889 461.252 319.241 462.188C318.593 463.124 318.233 464.768 318.161 467.12H325.109Z" fill="#287AF8"/>
</svg>
